<?xml version="1.0" encoding="utf-8"?>
<!-- Generator: Adobe Illustrator 21.1.0, SVG Export Plug-In . SVG Version: 6.00 Build 0)  -->
<svg version="1.1" id="Layer_1" xmlns="http://www.w3.org/2000/svg" xmlns:xlink="http://www.w3.org/1999/xlink" x="0px" y="0px"
	 viewBox="0 0 194.7 33.5" style="enable-background:new 0 0 194.7 33.5;" xml:space="preserve">
<style type="text/css">
	.st0{fill:#383236;}
	.st1{fill:#B66028;}
	.st2{fill:#94B56A;}
	.st3{fill:#984822;}
	.st4{fill:#25100E;}
	.st5{fill:#593B30;}
	.st6{fill:#291709;stroke:#291709;stroke-width:0.75;stroke-miterlimit:10;}
	.st7{fill:#FFFFFF;}
</style>
<path class="st0" d="M50.4,21c-0.8-1.1-1.2-2.2-1.2-3.5c0-0.8,0.1-1.4,0.4-1.8c0.3-0.4,0.7-0.7,1.1-0.9c0.4-0.2,0.9-0.4,1.4-0.4
	c0.5-0.1,1-0.2,1.4-0.3s0.8-0.4,1.2-0.6c0.3-0.3,0.5-0.7,0.5-1.3c0-1.4-0.8-2.2-2.5-2.2h-4.1v17.1c0,2.7-1.3,4.1-4,4.1
	c-1.3,0-2.3-0.3-3-1s-1-1.7-1-3V6.4c0-2.7,1.3-4,3.8-4h8.5c1.7,0,3.1,0.2,4.3,0.7s2.2,1.2,3,2s1.4,1.7,1.8,2.8
	c0.4,1,0.6,2.1,0.6,3.2c0,1.6-0.4,3.2-1.2,4.6s-2,2.5-3.6,3.3l3.4,5.4c0.5,0.8,0.8,1.7,0.8,2.5c0,0.6-0.1,1.1-0.3,1.6
	s-0.5,1-0.9,1.3c-0.4,0.4-0.8,0.7-1.3,0.9C59,30.9,58.5,31,58,31c-0.6,0-1.1-0.2-1.7-0.5s-1-0.9-1.5-1.6L50.4,21z"/>
<path class="st1" d="M69.6,31.1c-2.6,0-3.9-1.3-3.9-4V6.4c0-2.7,1.3-4,3.9-4H83c1.2,0,2.2,0.4,2.9,1.2c0.8,0.8,1.2,1.7,1.2,2.8
	s-0.4,2-1.1,2.8s-1.7,1.2-2.9,1.2h-9.5v2.4h7.6c1.2,0,2.2,0.4,2.9,1.2c0.7,0.8,1.1,1.7,1.1,2.8s-0.4,2-1.1,2.8s-1.7,1.2-2.9,1.2
	h-7.6v2.4h9.5c1.2,0,2.2,0.4,2.9,1.2c0.7,0.8,1.1,1.7,1.1,2.8c0,1.1-0.4,2-1.1,2.8s-1.7,1.2-2.9,1.2L69.6,31.1L69.6,31.1z"/>
<path class="st2" d="M104,10.5c-1.1,0-2.1,0.2-2.9,0.5c-0.9,0.3-1.5,0.8-2.1,1.4s-1,1.3-1.2,2c-0.3,0.8-0.4,1.5-0.4,2.3
	s0.1,1.6,0.4,2.4s0.7,1.4,1.2,2c0.6,0.6,1.2,1.1,2.1,1.4c0.8,0.4,1.8,0.6,2.9,0.6h2.9c0.7,0,1.3,0.1,1.8,0.3
	c0.5,0.2,0.9,0.5,1.2,0.9c0.3,0.4,0.6,0.8,0.7,1.3c0.2,0.5,0.2,1,0.2,1.4c0,1-0.3,1.9-1,2.8s-1.7,1.2-3,1.2h-2.9
	c-2.4,0-4.4-0.4-6.2-1.2c-1.8-0.8-3.3-1.9-4.5-3.2c-1.2-1.3-2.1-2.8-2.7-4.5s-0.9-3.4-0.9-5.2s0.3-3.6,0.9-5.3s1.6-3.3,2.8-4.7
	c1.2-1.4,2.8-2.5,4.7-3.3c1.9-0.8,4.1-1.2,6.6-1.2h2.3c0.7,0,1.3,0.1,1.8,0.3s0.9,0.5,1.2,0.9c0.3,0.4,0.6,0.8,0.8,1.3
	c0.2,0.5,0.3,1,0.3,1.5s-0.1,1-0.3,1.5c-0.2,0.5-0.4,0.9-0.8,1.3c-0.3,0.4-0.8,0.7-1.2,0.9c-0.5,0.2-1.1,0.3-1.8,0.3H104V10.5z"/>
<path class="st3" d="M122,27.1c0,1.3-0.4,2.3-1.2,2.9c-0.8,0.7-1.7,1-2.8,1c-1.1,0-2-0.3-2.8-1s-1.2-1.6-1.2-2.9V6.4
	c0-1.3,0.4-2.3,1.2-2.9s1.7-1,2.8-1c1.1,0,2,0.3,2.8,1c0.8,0.6,1.2,1.6,1.2,2.9V27.1z"/>
<path class="st4" d="M133.3,27c0,2.7-1.3,4.1-4,4.1c-1.3,0-2.3-0.3-3-1s-1-1.7-1-3V6.4c0-2.7,1.3-4,3.8-4h8.1c1.7,0,3.2,0.3,4.5,0.8
	s2.3,1.2,3.1,2.1s1.4,1.8,1.8,3c0.4,1.1,0.6,2.2,0.6,3.4s-0.2,2.3-0.6,3.4c-0.4,1.1-0.9,2.1-1.6,2.9s-1.6,1.5-2.6,2.1
	c-1,0.5-2.2,0.8-3.6,0.8h-1.2c-2.4,0-3.6-1.1-3.6-3.2c0-0.8,0.1-1.4,0.4-1.8s0.7-0.7,1.1-0.9c0.4-0.2,0.9-0.4,1.4-0.4
	c0.5-0.1,1-0.2,1.4-0.3s0.8-0.4,1.2-0.6c0.3-0.3,0.5-0.7,0.5-1.3c0-1.4-0.8-2.2-2.5-2.2h-4.3V27H133.3z"/>
<path class="st5" d="M153.3,31.1c-2.6,0-3.9-1.3-3.9-4V6.4c0-2.7,1.3-4,3.9-4h13.4c1.2,0,2.2,0.4,2.9,1.2s1.1,1.7,1.1,2.8
	s-0.4,2-1.1,2.8c-0.7,0.8-1.7,1.2-2.9,1.2h-9.5v2.4h7.6c1.2,0,2.2,0.4,2.9,1.2s1.1,1.7,1.1,2.8s-0.4,2-1.1,2.8s-1.7,1.2-2.9,1.2
	h-7.6v2.4h9.5c1.2,0,2.2,0.4,2.9,1.2c0.7,0.8,1.1,1.7,1.1,2.8c0,1.1-0.4,2-1.1,2.8c-0.7,0.8-1.7,1.2-2.9,1.2L153.3,31.1L153.3,31.1z
	"/>
<path class="st1" d="M194.7,21.9c0,6.1-3,9.2-8.9,9.2h-7.9c-2.5,0-3.8-1.3-3.8-3.8v-0.1c0.1-2.7,1.3-4,3.8-4h8.3
	c0.5,0,0.9-0.2,1.2-0.5s0.4-0.6,0.4-1s-0.1-0.7-0.4-1c-0.3-0.3-0.7-0.5-1.2-0.5h-4.1c-5.6,0-8.4-2.9-8.4-8.7c0-6.1,3-9.2,9-9.2h6.3
	c2.5,0,3.8,1.3,3.8,3.8v0.3c-0.1,2.7-1.3,4-3.8,4h-6.8c-0.5,0-0.9,0.2-1.2,0.5s-0.4,0.6-0.4,1s0.1,0.7,0.4,1
	c0.3,0.3,0.7,0.5,1.2,0.5h4.1C191.9,13.2,194.7,16.1,194.7,21.9z"/>
<circle class="st6" cx="16.7" cy="16.7" r="16.4"/>
<g>
	<path class="st7" d="M19.1,20c-0.2,0.3-0.3,0.5-0.4,0.5s-0.2,0.1-0.4,0.1c-0.1-0.2-0.3-0.5-0.5-0.9s-0.4-0.7-0.5-0.9
		c-2-3.6-3.4-5.2-4.1-4.8c-0.4,0.2-0.5,1-0.2,2.3c0.2,1,0.5,1.9,0.9,2.5l1,1.7c0.1,0.1,0.2,0.2,0.3,0.4c0.1,0.1,0.2,0.3,0.3,0.3
		c0.1,0.1,0,0.2,0,0.4c-0.1,0.2-0.2,0.3-0.3,0.3c-0.1,0.1-0.3,0.1-0.5,0s-0.3-0.2-0.4-0.3l-1.9-3.5c-0.2-0.4-0.5-0.8-1-1.3
		c-0.6-0.6-1-0.9-1.2-0.8c-0.1,0.1-0.2,0.3-0.3,0.8c-0.3,1.6,0.1,3.2,1,4.9c0.1,0.2,0.3,0.5,0.6,0.8c0.3,0.4,0.4,0.6,0.5,0.8
		c0.2,0.3,0.1,0.6-0.1,0.8c-0.1,0.1-0.3,0.1-0.5,0c-0.1,0-0.3-0.3-0.6-0.7c-0.3-0.4-0.5-0.7-0.6-0.8l-2.3-4.1
		c-0.7-1.2-0.8-1.9-0.6-2c0.1-0.1,0.3-0.1,0.5,0c0.2,0,0.3,0.1,0.4,0.2c0.1,0.2,0.3,0.6,0.4,1c0.2,0.6,0.4,0.9,0.4,1h0.1
		C9,18.1,9,17.5,8.9,16.8c0-0.8,0.2-1.3,0.6-1.6c0.6-0.3,1.5,0,2.7,1.1c0-0.2,0-0.6,0-1.1C12,14.7,12,14.3,12,14.1
		c0.1-0.4,0.3-0.7,0.6-0.9s0.8-0.2,1.4,0c1.1,0.4,2.2,1.5,3.3,3.5L19.1,20z"/>
	<path class="st7" d="M21.6,9.5c0.2,0.6,0.4,1.1,0.6,1.7c0.2,0.6,0.4,1.2,0.7,1.6l3,5.5c0.4,0.8,0.5,1.5,0.3,2.3
		c-0.2,0.7-0.7,1.3-1.5,1.7c-0.4,0.2-1,0.4-1.6,0.5c-0.8,0.1-1.4,0-1.8-0.3c-0.1-0.1-0.2-0.2-0.3-0.3c-0.2-0.3-0.1-0.6,0.2-0.8
		c0.1,0,0.2-0.1,0.3-0.1c0.3,0.1,0.6,0.2,0.9,0.3c0.6,0.1,1.2,0,1.8-0.3c0.8-0.4,1.1-1,1.1-1.7c0-0.4-0.3-1.1-0.8-2
		c-0.1-0.1-0.2-0.3-0.5-0.7c-0.2-0.3-0.4-0.5-0.5-0.8c-0.2,0.5-0.3,0.8-0.4,1c-0.2,0.3-0.4,0.5-0.7,0.7c-0.8,0.4-1.6,0.5-2.3,0.1
		c-0.7-0.3-1.2-0.9-1.7-1.7c-0.9-1.6-1.6-2.9-2.1-4c-0.2-0.4-0.1-0.7,0.3-0.9s0.7-0.3,0.7-0.1c0.1,0.7,0.8,2.1,1.9,4.3
		c0.9,1.6,1.8,2.2,2.7,1.7c0.6-0.3,0.8-1,0.6-2.1c-0.1-0.8-0.4-1.6-0.8-2.2l-1.1-2c-0.1-0.2-0.2-0.5-0.4-0.8c-0.2-0.3,0-0.6,0.3-0.7
		C21.3,9.2,21.5,9.3,21.6,9.5z"/>
</g>
</svg>
