<?xml version="1.0" encoding="utf-8"?>
<!-- Generator: Adobe Illustrator 21.1.0, SVG Export Plug-In . SVG Version: 6.00 Build 0)  -->
<svg version="1.1" id="Layer_1" xmlns="http://www.w3.org/2000/svg" xmlns:xlink="http://www.w3.org/1999/xlink" x="0px" y="0px"
	 viewBox="0 0 189.5 20" style="enable-background:new 0 0 189.5 20;" xml:space="preserve">
<style type="text/css">
	.st0{fill:#2A2A2A;stroke:#2A2A2A;stroke-miterlimit:10;}
</style>
<path class="st0" d="M13.8,5.2c-0.1-2.7-2.6-3.9-5.1-3.9C4.8,1.3,2,4.4,2,10s2.9,8.9,6.7,8.9c2.7,0,4.9-1.5,5.9-3.1l0.3,0.2
	c-1.2,1.8-3.4,3.3-6.5,3.3c-4.7,0-7.9-3.8-7.9-8.8C0.5,4,4.7,1,8.7,1c1.5,0,2.8,0.4,3.9,1c0.2,0,0.4,0.1,0.5,0.1
	c0.6,0,0.7-1.1,0.7-1.4h0.3v4.5H13.8z"/>
<path class="st0" d="M30.5,4.7c0-2.7-0.7-3-2-3h-3.8v16.9h1.1v0.3h-3.4v-0.3h1l0.1-16.9h-3.8c-1.2,0-2,0.3-2,3h-0.4V0.8h0.3
	C17.8,1,18,1.4,19,1.4h10.3c1,0,1.2-0.4,1.2-0.6h0.3v3.9H30.5z"/>
<path class="st0" d="M33.5,1.3h6.1c4.2,0,5.3,1.9,5.3,3.6c0,1.2-0.8,3.2-3.7,3.7c1.7,0.5,2.6,1.8,3.4,4.7c0.7,2.8,1,5.3,2.1,5.3
	c0.3,0,0.6-0.2,1.1-0.6l0.2,0.2c-0.4,0.4-1,0.9-1.7,0.9s-1.7-0.3-2.5-3.9c-1.1-4.8-1-6.5-4.2-6.5h-2.3V8.4h2.4
	c2.6,0,4.1-1.3,4.1-3.4c0-2.2-1.3-3.4-4.1-3.4H36v16.9h1v0.3h-3.3v-0.3h1V1.6h-1V1.3H33.5z"/>
<path class="st0" d="M50.5,18.6h1v-17h-1V1.3h3.3v0.3h-1v16.9h5.9c1.1,0,1.8-0.4,1.8-3h0.4v3.9h-0.3c-0.1-0.2-0.3-0.6-1.1-0.6h-8.9
	v-0.2H50.5z"/>
<path class="st0" d="M74,10.2l-5.3,3l-0.1-0.3l4.4-2.5l-4.4-2.6l0.6-1L74,9.7V10.2z"/>
<path class="st0" d="M94.7,18.6h1v0.3h-3.4v-0.3h1.1L88.8,4.4c-0.3-1-0.6-1.6-0.8-2l-2.8,8.2h4.3l0.1,0.3H85l-2,6.5
	c-0.1,0.3-0.1,0.5-0.1,0.6c0,0.4,0.3,0.6,0.9,0.6h0.3v0.3h-3.4v-0.3c1.1,0,1.5-0.2,2.1-1.9l5-14.7c-0.1-0.1-0.2-0.1-0.3-0.1
	c-0.3,0-0.5,0.1-0.8,0.2l-0.1-0.3l2.3-1.1L94.7,18.6z"/>
<path class="st0" d="M98.5,18.6h1v-17h-1V1.3h3.3v0.3h-1v16.9h5.9c1.1,0,1.8-0.4,1.8-3h0.4v3.9h-0.3c-0.1-0.2-0.3-0.6-1.1-0.6h-8.9
	v-0.2H98.5z"/>
<path class="st0" d="M122.8,4.7c0-2.7-0.7-3-2-3H117v16.9h1.1v0.3h-3.4v-0.3h1l0.1-16.9H112c-1.2,0-2,0.3-2,3h-0.4V0.8h0.3
	c0.1,0.2,0.3,0.6,1.2,0.6h10.3c1,0,1.2-0.4,1.2-0.6h0.3L122.8,4.7C122.9,4.7,122.8,4.7,122.8,4.7z"/>
<path class="st0" d="M137.4,10.2l-5.3,3l-0.1-0.3l4.4-2.5L132,7.8l0.6-1l4.8,2.9V10.2z"/>
<path class="st0" d="M145.1,18.6h1V1.7h-1V1.3h10.4c0.9,0,1.1-0.4,1.1-0.6h0.3v3.8h-0.4c0-2.6-0.7-2.8-2-2.8h-7.3v6.8h4.2
	c0.7,0,0.8-0.5,0.8-1h0.4l0.6,3.5H153c-0.7-2.2-0.8-2.2-1.9-2.2h-3.8v9.7h7.8c1.1,0,1.8-0.4,1.8-3h0.4v3.9H157
	c-0.1-0.2-0.3-0.6-1.2-0.6h-10.7V18.6z"/>
<path class="st0" d="M174.2,18.6h1v0.3h-3.4v-0.3h1.1l-4.5-14.1c-0.3-1-0.6-1.6-0.8-2l-2.8,8.2h4.3l0.1,0.3h-4.6l-2.2,6.5
	c-0.1,0.3-0.1,0.5-0.1,0.6c0,0.4,0.3,0.6,0.9,0.6h0.3V19h-3.4v-0.3c1.1,0,1.5-0.2,2.1-1.9l5-14.7C167.1,2,167,2,166.9,2
	c-0.3,0-0.5,0.1-0.8,0.2L166,1.9l2.3-1.1L174.2,18.6z"/>
<path class="st0" d="M188.7,4.7c0-2.7-0.7-3-2-3h-3.8v16.9h1.1v0.3h-3.4v-0.3h1l0.1-16.9h-3.8c-1.2,0-2,0.3-2,3h-0.4V0.8h0.3
	c0.1,0.2,0.3,0.6,1.2,0.6h10.3c1,0,1.2-0.4,1.2-0.6h0.3v3.9C188.8,4.7,188.7,4.7,188.7,4.7z"/>
</svg>
